<mxfile host="www.draw.io" modified="2020-02-10T14:54:08.619Z" agent="Mozilla/5.0 (X11; Ubuntu; Linux x86_64; rv:72.0) Gecko/20100101 Firefox/72.0" etag="ca8aQQ8Iy0QC_dbfakOL" version="12.6.6" type="github">
  <diagram name="Page-1" id="58cdce13-f638-feb5-8d6f-7d28b1aa9fa0">
    <mxGraphModel dx="1594" dy="1904" grid="1" gridSize="10" guides="1" tooltips="1" connect="1" arrows="1" fold="1" page="1" pageScale="1" pageWidth="1100" pageHeight="850" background="#ffffff" math="0" shadow="0">
      <root>
        <mxCell id="0"/>
        <mxCell id="1" parent="0"/>
        <mxCell id="xnfGC8_ZxIWT7jYt_e5Y-49" value="InFloor" style="edgeStyle=orthogonalEdgeStyle;rounded=0;orthogonalLoop=1;jettySize=auto;html=1;" parent="1" source="xnfGC8_ZxIWT7jYt_e5Y-38" target="xnfGC8_ZxIWT7jYt_e5Y-48" edge="1">
          <mxGeometry relative="1" as="geometry"/>
        </mxCell>
        <mxCell id="xnfGC8_ZxIWT7jYt_e5Y-38" value="Initialize" style="rounded=1;whiteSpace=wrap;html=1;arcSize=24;fillColor=#ffffc0;strokeColor=#ff0000;shadow=0;comic=0;labelBackgroundColor=none;fontFamily=Verdana;fontSize=12;fontColor=#000000;align=center;" parent="1" vertex="1">
          <mxGeometry x="210" y="-220" width="120" height="60" as="geometry"/>
        </mxCell>
        <mxCell id="xnfGC8_ZxIWT7jYt_e5Y-51" value="OrderQueueDown" style="edgeStyle=orthogonalEdgeStyle;rounded=0;orthogonalLoop=1;jettySize=auto;html=1;exitX=0.25;exitY=1;exitDx=0;exitDy=0;entryX=0;entryY=0.5;entryDx=0;entryDy=0;" parent="1" source="xnfGC8_ZxIWT7jYt_e5Y-48" target="xnfGC8_ZxIWT7jYt_e5Y-50" edge="1">
          <mxGeometry relative="1" as="geometry"/>
        </mxCell>
        <mxCell id="xnfGC8_ZxIWT7jYt_e5Y-61" value="StopButtonPressed" style="edgeStyle=orthogonalEdgeStyle;rounded=0;orthogonalLoop=1;jettySize=auto;html=1;exitX=0.5;exitY=1;exitDx=0;exitDy=0;entryX=0;entryY=0.25;entryDx=0;entryDy=0;" parent="1" source="xnfGC8_ZxIWT7jYt_e5Y-48" target="xnfGC8_ZxIWT7jYt_e5Y-57" edge="1">
          <mxGeometry x="-0.4217" y="40" relative="1" as="geometry">
            <Array as="points">
              <mxPoint x="510" y="-160"/>
              <mxPoint x="510" y="5"/>
            </Array>
            <mxPoint as="offset"/>
          </mxGeometry>
        </mxCell>
        <mxCell id="xnfGC8_ZxIWT7jYt_e5Y-72" value="OrderQueueUp" style="edgeStyle=orthogonalEdgeStyle;rounded=0;orthogonalLoop=1;jettySize=auto;html=1;exitX=1;exitY=0.25;exitDx=0;exitDy=0;entryX=0;entryY=0.5;entryDx=0;entryDy=0;" parent="1" source="xnfGC8_ZxIWT7jYt_e5Y-48" target="xnfGC8_ZxIWT7jYt_e5Y-70" edge="1">
          <mxGeometry relative="1" as="geometry">
            <Array as="points">
              <mxPoint x="530" y="-190"/>
            </Array>
          </mxGeometry>
        </mxCell>
        <mxCell id="xnfGC8_ZxIWT7jYt_e5Y-48" value="Idle" style="rounded=1;whiteSpace=wrap;html=1;arcSize=24;fillColor=#ffffc0;strokeColor=#ff0000;shadow=0;comic=0;labelBackgroundColor=none;fontFamily=Verdana;fontSize=12;fontColor=#000000;align=center;" parent="1" vertex="1">
          <mxGeometry x="410" y="-220" width="120" height="60" as="geometry"/>
        </mxCell>
        <mxCell id="xnfGC8_ZxIWT7jYt_e5Y-54" value="atCorrectFloor" style="edgeStyle=orthogonalEdgeStyle;rounded=0;orthogonalLoop=1;jettySize=auto;html=1;entryX=1;entryY=0.25;entryDx=0;entryDy=0;exitX=1;exitY=0.5;exitDx=0;exitDy=0;" parent="1" source="xnfGC8_ZxIWT7jYt_e5Y-50" target="xnfGC8_ZxIWT7jYt_e5Y-53" edge="1">
          <mxGeometry x="0.0857" y="-10" relative="1" as="geometry">
            <Array as="points">
              <mxPoint x="1030" y="180"/>
              <mxPoint x="1030" y="-345"/>
            </Array>
            <mxPoint as="offset"/>
          </mxGeometry>
        </mxCell>
        <mxCell id="xnfGC8_ZxIWT7jYt_e5Y-58" value="StopButtonPressed" style="edgeStyle=orthogonalEdgeStyle;rounded=0;orthogonalLoop=1;jettySize=auto;html=1;" parent="1" source="xnfGC8_ZxIWT7jYt_e5Y-50" target="xnfGC8_ZxIWT7jYt_e5Y-57" edge="1">
          <mxGeometry relative="1" as="geometry">
            <Array as="points">
              <mxPoint x="790" y="130"/>
              <mxPoint x="790" y="130"/>
            </Array>
          </mxGeometry>
        </mxCell>
        <mxCell id="xnfGC8_ZxIWT7jYt_e5Y-50" value="MovingDown" style="rounded=1;whiteSpace=wrap;html=1;arcSize=24;fillColor=#ffffc0;strokeColor=#ff0000;shadow=0;comic=0;labelBackgroundColor=none;fontFamily=Verdana;fontSize=12;fontColor=#000000;align=center;" parent="1" vertex="1">
          <mxGeometry x="720" y="150" width="120" height="60" as="geometry"/>
        </mxCell>
        <mxCell id="xnfGC8_ZxIWT7jYt_e5Y-59" style="edgeStyle=orthogonalEdgeStyle;rounded=0;orthogonalLoop=1;jettySize=auto;html=1;" parent="1" source="xnfGC8_ZxIWT7jYt_e5Y-57" edge="1">
          <mxGeometry relative="1" as="geometry">
            <mxPoint x="490" y="-160" as="targetPoint"/>
            <Array as="points">
              <mxPoint x="490" y="20"/>
              <mxPoint x="490" y="-160"/>
            </Array>
          </mxGeometry>
        </mxCell>
        <mxCell id="xnfGC8_ZxIWT7jYt_e5Y-60" value="StopButtonUnpressed" style="text;html=1;align=center;verticalAlign=middle;resizable=0;points=[];labelBackgroundColor=#ffffff;fontSize=11;" parent="xnfGC8_ZxIWT7jYt_e5Y-59" vertex="1" connectable="0">
          <mxGeometry x="-0.4051" relative="1" as="geometry">
            <mxPoint as="offset"/>
          </mxGeometry>
        </mxCell>
        <mxCell id="xnfGC8_ZxIWT7jYt_e5Y-57" value="Stop" style="rounded=1;whiteSpace=wrap;html=1;arcSize=24;fillColor=#ffffc0;strokeColor=#ff0000;shadow=0;comic=0;labelBackgroundColor=none;fontFamily=Verdana;fontSize=12;fontColor=#000000;align=center;" parent="1" vertex="1">
          <mxGeometry x="720" y="-10" width="120" height="60" as="geometry"/>
        </mxCell>
        <mxCell id="xnfGC8_ZxIWT7jYt_e5Y-55" style="edgeStyle=orthogonalEdgeStyle;rounded=0;orthogonalLoop=1;jettySize=auto;html=1;entryX=0.5;entryY=0;entryDx=0;entryDy=0;" parent="1" source="xnfGC8_ZxIWT7jYt_e5Y-53" target="xnfGC8_ZxIWT7jYt_e5Y-48" edge="1">
          <mxGeometry relative="1" as="geometry"/>
        </mxCell>
        <mxCell id="xnfGC8_ZxIWT7jYt_e5Y-56" value="3sekGone" style="text;html=1;align=center;verticalAlign=middle;resizable=0;points=[];labelBackgroundColor=#ffffff;" parent="xnfGC8_ZxIWT7jYt_e5Y-55" vertex="1" connectable="0">
          <mxGeometry x="-0.1306" y="2" relative="1" as="geometry">
            <mxPoint as="offset"/>
          </mxGeometry>
        </mxCell>
        <mxCell id="xnfGC8_ZxIWT7jYt_e5Y-63" value="StopButton Pressed" style="edgeStyle=orthogonalEdgeStyle;rounded=0;orthogonalLoop=1;jettySize=auto;html=1;exitX=1;exitY=0.5;exitDx=0;exitDy=0;entryX=1;entryY=0.5;entryDx=0;entryDy=0;" parent="1" source="xnfGC8_ZxIWT7jYt_e5Y-53" target="xnfGC8_ZxIWT7jYt_e5Y-57" edge="1">
          <mxGeometry y="40" relative="1" as="geometry">
            <Array as="points">
              <mxPoint x="930" y="-330"/>
              <mxPoint x="930" y="20"/>
            </Array>
            <mxPoint as="offset"/>
          </mxGeometry>
        </mxCell>
        <mxCell id="xnfGC8_ZxIWT7jYt_e5Y-53" value="DoorOpen" style="rounded=1;whiteSpace=wrap;html=1;arcSize=24;fillColor=#ffffc0;strokeColor=#ff0000;shadow=0;comic=0;labelBackgroundColor=none;fontFamily=Verdana;fontSize=12;fontColor=#000000;align=center;" parent="1" vertex="1">
          <mxGeometry x="720" y="-360" width="120" height="60" as="geometry"/>
        </mxCell>
        <mxCell id="xnfGC8_ZxIWT7jYt_e5Y-44" value="" style="ellipse;html=1;shape=startState;fillColor=#000000;strokeColor=#ff0000;rounded=1;shadow=0;comic=0;labelBackgroundColor=none;fontFamily=Verdana;fontSize=12;fontColor=#000000;align=center;direction=south;" parent="1" vertex="1">
          <mxGeometry x="29.33" y="-205" width="30" height="30" as="geometry"/>
        </mxCell>
        <mxCell id="xnfGC8_ZxIWT7jYt_e5Y-45" value="" style="edgeStyle=orthogonalEdgeStyle;html=1;labelBackgroundColor=none;endArrow=open;endSize=8;strokeColor=#000000;fontFamily=Verdana;fontSize=12;align=left;entryX=0;entryY=0.5;entryDx=0;entryDy=0;" parent="1" source="xnfGC8_ZxIWT7jYt_e5Y-44" target="xnfGC8_ZxIWT7jYt_e5Y-38" edge="1">
          <mxGeometry x="-0.1203" relative="1" as="geometry">
            <mxPoint x="9.329999999999927" y="-190.4199999999998" as="sourcePoint"/>
            <mxPoint x="170.00000000000045" y="-190.4199999999998" as="targetPoint"/>
            <mxPoint as="offset"/>
          </mxGeometry>
        </mxCell>
        <mxCell id="xnfGC8_ZxIWT7jYt_e5Y-64" value="&lt;div&gt;Stop: Tøm køen. Stop umidelbart&lt;/div&gt;&lt;div&gt;DoorOpen: Stop, åpne dører. Dørlyset skal lyse. Sjekk obstruction (while løkke)&lt;br&gt;&lt;/div&gt;&lt;div&gt;Initialize: Får den til en etasje.&lt;/div&gt;&lt;div&gt;Idle: Sjekke neste steg. &lt;br&gt;&lt;/div&gt;&lt;div&gt;Moving: Oppdatere kø&lt;br&gt;&lt;/div&gt;" style="text;html=1;align=center;verticalAlign=middle;resizable=0;points=[];autosize=1;" parent="1" vertex="1">
          <mxGeometry x="170" y="-560" width="500" height="80" as="geometry"/>
        </mxCell>
        <mxCell id="xnfGC8_ZxIWT7jYt_e5Y-65" value="Obstruction" style="edgeStyle=orthogonalEdgeStyle;rounded=0;orthogonalLoop=1;jettySize=auto;html=1;exitX=0.25;exitY=0;exitDx=0;exitDy=0;entryX=0.75;entryY=0;entryDx=0;entryDy=0;" parent="1" source="xnfGC8_ZxIWT7jYt_e5Y-53" target="xnfGC8_ZxIWT7jYt_e5Y-53" edge="1">
          <mxGeometry relative="1" as="geometry">
            <Array as="points">
              <mxPoint x="730" y="-360"/>
              <mxPoint x="730" y="-410"/>
              <mxPoint x="810" y="-410"/>
            </Array>
          </mxGeometry>
        </mxCell>
        <mxCell id="xnfGC8_ZxIWT7jYt_e5Y-73" value="&lt;div&gt;StopButtonPressed&lt;/div&gt;" style="edgeStyle=orthogonalEdgeStyle;rounded=0;orthogonalLoop=1;jettySize=auto;html=1;exitX=0.619;exitY=1;exitDx=0;exitDy=0;entryX=0.608;entryY=0.017;entryDx=0;entryDy=0;entryPerimeter=0;exitPerimeter=0;" parent="1" source="xnfGC8_ZxIWT7jYt_e5Y-70" target="xnfGC8_ZxIWT7jYt_e5Y-57" edge="1">
          <mxGeometry x="0.2582" y="10" relative="1" as="geometry">
            <mxPoint as="offset"/>
            <Array as="points">
              <mxPoint x="793" y="-160"/>
            </Array>
          </mxGeometry>
        </mxCell>
        <mxCell id="xnfGC8_ZxIWT7jYt_e5Y-74" value="atCorrectFloor" style="edgeStyle=orthogonalEdgeStyle;rounded=0;orthogonalLoop=1;jettySize=auto;html=1;exitX=0.5;exitY=0;exitDx=0;exitDy=0;entryX=0.5;entryY=1;entryDx=0;entryDy=0;" parent="1" source="xnfGC8_ZxIWT7jYt_e5Y-70" target="xnfGC8_ZxIWT7jYt_e5Y-53" edge="1">
          <mxGeometry relative="1" as="geometry">
            <Array as="points">
              <mxPoint x="780" y="-240"/>
              <mxPoint x="780" y="-240"/>
            </Array>
          </mxGeometry>
        </mxCell>
        <mxCell id="xnfGC8_ZxIWT7jYt_e5Y-70" value="MovingUp" style="rounded=1;whiteSpace=wrap;html=1;arcSize=24;fillColor=#ffffc0;strokeColor=#ff0000;shadow=0;comic=0;labelBackgroundColor=none;fontFamily=Verdana;fontSize=12;fontColor=#000000;align=center;" parent="1" vertex="1">
          <mxGeometry x="720" y="-220" width="120" height="60" as="geometry"/>
        </mxCell>
      </root>
    </mxGraphModel>
  </diagram>
</mxfile>
